# xmcd CD database file
#
# Track frame offsets:
#	150
#	20132
#	37442
#	51818
#	69968
#	90620
#	109318
#	127626
#	139274
#	156565
#	172334
#	185773
#
# Disc length: 2780 seconds
#
# Revision: 1
# Processed by: cddbd v1.5.2PL0 Copyright (c) Steve Scherf et al.
# Submitted via: CDex 1.70beta3
#
DISCID=b60ada0c
DTITLE=モアリズム - EVERY SONG IS LOVE SONG
DYEAR=2010
DGENRE=Blues
TTITLE0=すべてのウタはラブソング
TTITLE1=アイラブユー
TTITLE2=ユるい女
TTITLE3=ワルモノブギ
TTITLE4=クニタチ☆ファンキー
TTITLE5=悲劇のブランコ
TTITLE6=星の下で下北で
TTITLE7=宵待草
TTITLE8=彼女は川の中
TTITLE9=マムシのブルース
TTITLE10=金がない
TTITLE11=去らば君よ
EXTD=YEAR: 2010
EXTT0=
EXTT1=
EXTT2=
EXTT3=
EXTT4=
EXTT5=
EXTT6=
EXTT7=
EXTT8=
EXTT9=
EXTT10=
EXTT11=
PLAYORDER=
